# xmcd
#
# Track frame offsets:
#	150
#	12976
#	27944
#	44175
#	61560
#	76896
#	92205
#	108327
#	124261
#	137828
#	156802
#	174491
#	186863
#
# Disc length: 2648 seconds
#
# Revision: 1
# Processed by: cddbd v1.5.2PL0 Copyright (c) Steve Scherf et al.
# Submitted via: audiograbber 1.83.01
#
DISCID=a90a560d
DTITLE=Trick Pony - Trick Pony
DYEAR=2001
DGENRE=Country
TTITLE0=Pour Me
TTITLE1=Party Of One
TTITLE2=Big River (featuring Johnny Cash and Waylon Jennings)
TTITLE3=Every Other Memory
TTITLE4=More Like Me
TTITLE5=Just What I Do
TTITLE6=Stay In This Moment
TTITLE7=On A Night Like This
TTITLE8=One In A Row
TTITLE9=Now Would Be The Time
TTITLE10=Can't Say That On The Radio
TTITLE11=Spent
TTITLE12=Not Hidden Track
EXTD=
EXTT0=
EXTT1=
EXTT2=
EXTT3=
EXTT4=
EXTT5=
EXTT6=
EXTT7=
EXTT8=
EXTT9=
EXTT10=
EXTT11=
EXTT12=
PLAYORDER=
